<?xml version="1.0" encoding="UTF-8"?>
<svg width="300" height="300" viewBox="0 0 300 300" fill="none" xmlns="http://www.w3.org/2000/svg">
  <!-- Background shape -->
  <rect x="50" y="50" width="200" height="200" rx="20" fill="#F0F7FF"/>
  
  <!-- 404 Text with shadow effect -->
  <text x="153" y="163" font-family="Arial" font-size="70" font-weight="bold" text-anchor="middle" fill="#DDEBFF">404</text>
  <text x="150" y="160" font-family="Arial" font-size="70" font-weight="bold" text-anchor="middle" fill="#1677FF">404</text>
  
  <!-- Broken link icon -->
  <path d="M100 120 C90 120, 80 130, 80 140 C80 150, 90 160, 100 160 L120 160" stroke="#1677FF" stroke-width="8" stroke-linecap="round"/>
  <path d="M200 120 C210 120, 220 130, 220 140 C220 150, 210 160, 200 160 L180 160" stroke="#1677FF" stroke-width="8" stroke-linecap="round"/>
  <path d="M130 160 L170 160" stroke="#1677FF" stroke-width="8" stroke-linecap="round" stroke-dasharray="15 15"/>
  
  <!-- Decorative elements -->
  <circle cx="80" cy="80" r="10" fill="#1677FF" opacity="0.7"/>
  <circle cx="220" cy="80" r="10" fill="#1677FF" opacity="0.7"/>
  <circle cx="80" cy="220" r="10" fill="#1677FF" opacity="0.7"/>
  <circle cx="220" cy="220" r="10" fill="#1677FF" opacity="0.7"/>
  
  <!-- Search icon -->
  <circle cx="150" cy="210" r="15" fill="white" stroke="#1677FF" stroke-width="4"/>
  <line x1="160" y1="220" x2="170" y2="230" stroke="#1677FF" stroke-width="4" stroke-linecap="round"/>
</svg>
