<?xml version="1.0" encoding="UTF-8"?>
<svg width="300" height="300" viewBox="0 0 300 300" fill="none" xmlns="http://www.w3.org/2000/svg">
  <!-- Background shape -->
  <rect x="50" y="50" width="200" height="200" rx="20" fill="#F0F7FF"/>
  
  <!-- Server icon -->
  <rect x="110" y="100" width="80" height="100" rx="5" fill="#1677FF" stroke="white" stroke-width="4"/>
  
  <!-- Server details -->
  <rect x="120" y="110" width="60" height="10" rx="2" fill="white"/>
  <rect x="120" y="130" width="60" height="10" rx="2" fill="white"/>
  <rect x="120" y="150" width="60" height="10" rx="2" fill="white"/>
  <rect x="120" y="170" width="60" height="10" rx="2" fill="white"/>
  
  <!-- Lightning bolt -->
  <path d="M190 90 L160 130 L180 130 L150 180 L160 140 L140 140 L170 90 Z" fill="#FAAD14" stroke="white" stroke-width="2"/>
  
  <!-- Decorative elements -->
  <circle cx="80" cy="80" r="10" fill="#1677FF" opacity="0.7"/>
  <circle cx="220" cy="80" r="10" fill="#1677FF" opacity="0.7"/>
  <circle cx="80" cy="220" r="10" fill="#1677FF" opacity="0.7"/>
  <circle cx="220" cy="220" r="10" fill="#1677FF" opacity="0.7"/>
  
  <!-- Warning text -->
  <text x="150" y="220" font-family="Arial" font-size="20" font-weight="bold" text-anchor="middle" fill="#1677FF">SERVER ERROR</text>
</svg>
